PathFileType	4	(X/Y/Z)	Kaydara	
DataRate	CameraRate	NumFrames	NumMarkers	Units	OrigDataRate	OrigDataStartFrame	OrigNumFrames	
120.00	120.00	4	29	mm	120.00	2492	2847	
Frame#	Time	Pelvis			Left_hip			Left_knee			Left_ankle			Left_foot			Left_foot_End			Right_hip			Right_knee			Right_ankle			Right_foot			Right_foot_End			Spine1			Spine2			Spine3			Neck			Head			Head_End			Left_collar			Left_shoulder			Left_elbow			Left_wrist			Left_palm			Left_palm_End			Right_collar			Right_shoulder			Right_elbow			Right_wrist			Right_palm			Right_palm_End			
		X1	Y1	Z1	X2	Y2	Z2	X3	Y3	Z3	X4	Y4	Z4	X5	Y5	Z5	X6	Y6	Z6	X7	Y7	Z7	X8	Y8	Z8	X9	Y9	Z9	X10	Y10	Z10	X11	Y11	Z11	X12	Y12	Z12	X13	Y13	Z13	X14	Y14	Z14	X15	Y15	Z15	X16	Y16	Z16	X17	Y17	Z17	X18	Y18	Z18	X19	Y19	Z19	X20	Y20	Z20	X21	Y21	Z21	X22	Y22	Z22	X23	Y23	Z23	X24	Y24	Z24	X25	Y25	Z25	X26	Y26	Z26	X27	Y27	Z27	X28	Y28	Z28	X29	Y29	Z29	

2492	20.758	779.73000	986.32004	-996.95000	695.30727	928.36774	-991.64594	653.24024	544.30407	-1036.77213	783.90470	216.02943	-793.86560	698.32593	121.32731	-856.49057	698.32593	121.32731	-856.49057	803.56938	882.14751	-972.59669	826.51281	504.38370	-1049.27255	895.93399	117.64709	-895.61135	958.78803	44.28338	-1008.40378	958.78803	44.28338	-1008.40378	816.49789	1105.25060	-998.47146	860.86691	1235.97467	-996.29854	886.56039	1285.79661	-999.54342	995.30847	1468.11068	-990.27490	1036.26949	1544.99189	-1044.72446	1036.26949	1544.99189	-1044.72446	874.77957	1421.27934	-999.36656	782.29495	1515.93566	-997.75398	605.89401	1363.05387	-1104.87880	449.55831	1317.96195	-1315.45602	408.06121	1287.46883	-1387.70358	408.06121	1287.46883	-1387.70358	1007.33880	1350.29359	-962.85524	1127.33885	1338.40904	-939.48145	1047.45532	1094.80124	-995.37532	874.84986	1176.19282	-1185.33416	826.75307	1212.40620	-1251.88875	826.75307	1212.40620	-1251.88875 
2493	20.767	780.58998	986.58997	-997.28996	696.18245	928.61061	-992.03999	653.18054	544.61180	-1036.83572	783.79571	215.76707	-794.67492	698.18955	121.04752	-857.23606	698.18955	121.04752	-857.23606	804.44618	882.42753	-972.90996	826.88501	504.54253	-1049.13666	896.13580	117.64071	-895.81487	958.88514	44.25132	-1008.64888	958.88514	44.25132	-1008.64888	817.32012	1105.53238	-998.79677	861.63679	1236.27363	-996.58948	887.30843	1286.10901	-999.80059	995.92901	1468.48934	-990.34226	1036.91236	1545.41024	-1044.71890	1036.91236	1545.41024	-1044.71890	875.44169	1421.58422	-999.60314	782.87508	1516.16097	-998.02632	606.79278	1363.00028	-1105.27691	450.58835	1317.48369	-1315.86019	409.15410	1286.85206	-1388.08522	409.15410	1286.85206	-1388.08522	1007.99819	1350.67258	-962.93821	1127.97734	1338.92979	-939.38622	1047.47768	1095.48068	-995.08719	873.93127	1176.45597	-1184.36542	825.38320	1212.45400	-1250.70882	825.38320	1212.45400	-1250.70882 
2494	20.775	781.38000	986.79001	-997.79999	697.00325	928.75810	-992.63664	653.05735	544.81977	-1037.03281	783.56699	215.41776	-795.57356	697.93854	120.67625	-858.07089	697.93854	120.67625	-858.07089	805.27892	882.63522	-973.42916	827.09723	504.61413	-1049.15958	896.20495	117.59332	-896.07370	958.87088	44.17121	-1008.93278	958.87088	44.17121	-1008.93278	818.03935	1105.75505	-999.24294	862.26704	1236.52472	-996.93626	887.90311	1286.38270	-1000.08001	996.34495	1468.85121	-990.27788	1037.33191	1545.86782	-1044.51615	1037.33191	1545.86782	-1044.51615	875.91298	1421.84679	-999.75275	783.24792	1516.32741	-998.19588	607.46829	1362.88427	-1105.53917	451.35432	1316.96758	-1316.10268	410.00250	1286.21135	-1388.32200	410.00250	1286.21135	-1388.32200	1008.48404	1351.01598	-962.98438	1128.44958	1339.43088	-939.28538	1047.41551	1096.12585	-994.84077	872.85767	1176.62534	-1183.39047	824.10707	1212.52784	-1249.63707	824.10707	1212.52784	-1249.63707 
2495	20.783	782.19002	986.94000	-998.30002	697.86006	928.83001	-993.25161	652.97746	544.94722	-1037.18867	783.31766	214.98302	-796.40644	697.65979	120.22915	-858.84471	697.65979	120.22915	-858.84471	806.15661	882.79636	-973.94800	827.32098	504.65253	-1049.25001	896.32358	117.57593	-896.25780	958.91655	44.12743	-1009.14019	958.91655	44.12743	-1009.14019	818.74379	1105.93859	-999.65311	862.84738	1236.74769	-997.21052	888.43754	1286.63465	-1000.26729	996.67613	1469.20012	-990.03334	1037.64557	1546.34990	-1044.09528	1037.64557	1546.34990	-1044.09528	876.30476	1422.08536	-999.72782	783.52110	1516.44965	-998.17941	608.08698	1362.68447	-1105.62705	452.15387	1316.21334	-1316.20294	410.87211	1285.28122	-1388.38721	410.87211	1285.28122	-1388.38721	1008.90704	1351.33222	-962.92250	1128.85576	1339.87140	-939.07844	1047.45458	1096.67108	-994.55556	872.04610	1176.61133	-1182.55295	823.35980	1212.54648	-1248.82911	823.35980	1212.54648	-1248.82911 
